<svg width="12" height="12" viewBox="0 0 12 12" fill="none" xmlns="http://www.w3.org/2000/svg">
<g clip-path="url(#clip0)">
<path d="M7.09939 6.00903L11.772 1.33633C12.076 1.03239 12.076 0.540959 11.772 0.237019C11.468 -0.0669213 10.9766 -0.0669213 10.6727 0.237019L5.99994 4.90972L1.32737 0.237019C1.02329 -0.0669213 0.532003 -0.0669213 0.228062 0.237019C-0.0760207 0.540959 -0.0760207 1.03239 0.228062 1.33633L4.90063 6.00903L0.228062 10.6817C-0.0760207 10.9857 -0.0760207 11.4771 0.228062 11.781C0.379534 11.9327 0.578697 12.0088 0.777717 12.0088C0.976738 12.0088 1.17576 11.9327 1.32737 11.781L5.99994 7.10834L10.6727 11.781C10.8243 11.9327 11.0233 12.0088 11.2223 12.0088C11.4213 12.0088 11.6203 11.9327 11.772 11.781C12.076 11.4771 12.076 10.9857 11.772 10.6817L7.09939 6.00903Z" fill="#C52626"/>
</g>
<defs>
<clipPath id="clip0">
<rect width="12" height="12" fill="white"/>
</clipPath>
</defs>
</svg>
